<svg width="18" height="21" viewBox="0 0 18 21" fill="none" xmlns="http://www.w3.org/2000/svg">
<path d="M5.96889 11.859L12.04 15.441M12.0311 5.559L5.96889 9.141M17 4.2C17 5.69117 15.8061 6.9 14.3333 6.9C12.8606 6.9 11.6667 5.69117 11.6667 4.2C11.6667 2.70883 12.8606 1.5 14.3333 1.5C15.8061 1.5 17 2.70883 17 4.2ZM6.33333 10.5C6.33333 11.9912 5.13943 13.2 3.66667 13.2C2.19391 13.2 1 11.9912 1 10.5C1 9.00883 2.19391 7.8 3.66667 7.8C5.13943 7.8 6.33333 9.00883 6.33333 10.5ZM17 16.8C17 18.2912 15.8061 19.5 14.3333 19.5C12.8606 19.5 11.6667 18.2912 11.6667 16.8C11.6667 15.3088 12.8606 14.1 14.3333 14.1C15.8061 14.1 17 15.3088 17 16.8Z" stroke="#5C5F6A" stroke-width="1.43" stroke-linecap="round" stroke-linejoin="round"/>
</svg>
